Coordinates
version=1
nRows=29
nColumns=24
inDegrees=yes

Units are S.I. units (second, meters, Newtons, ...)
Angles are in degrees.

endheader
time	pelvis_tilt	pelvis_list	pelvis_rotation	pelvis_tx	pelvis_ty	pelvis_tz	hip_flexion_r	hip_adduction_r	hip_rotation_r	knee_angle_r	ankle_angle_r	subtalar_angle_r	mtp_angle_r	hip_flexion_l	hip_adduction_l	hip_rotation_l	knee_angle_l	ankle_angle_l	subtalar_angle_l	mtp_angle_l	lumbar_extension	lumbar_bending	lumbar_rotation
      4.69500000	     13.41074849	     -6.70058991	     16.30927702	      0.51070113	      0.93406183	     -0.27589105	     -7.13760201	     13.93126374	     -1.33886343	     -9.84459567	     19.85609490	     -6.53190355	      0.00000000	      2.90399557	     -9.17404626	     11.73150019	    -67.10072585	     12.59355626	     -2.21025874	      0.00000000	    -26.36871874	     12.36219758	    -13.02146329
      4.70000000	     13.30268665	     -6.43090223	     15.90548500	      0.51691835	      0.93466847	     -0.27542267	     -7.72712628	     13.67632765	     -1.12489888	     -9.51515862	     20.13833167	     -6.19903707	      0.00000000	      3.63613750	     -8.53388386	     11.53184706	    -66.76400783	     13.22464755	     -2.46930616	      0.00000000	    -26.43631188	     11.87690549	    -12.64826334
      4.70500000	     13.20851592	     -6.17881420	     15.42153903	      0.52319294	      0.93528081	     -0.27492558	     -8.34014268	     13.41777474	     -0.87641290	     -9.17763055	     20.37580421	     -5.79791680	      0.00000000	      4.31127964	     -7.93462235	     11.23149246	    -66.31578688	     13.81073390	     -2.72097890	      0.00000000	    -26.51744139	     11.39026464	    -12.16616745
      4.71000000	     13.12844072	     -5.93016075	     14.94055139	      0.52946970	      0.93585943	     -0.27441685	     -8.96503240	     13.16110152	     -0.63091806	     -8.83218229	     20.57932191	     -5.42313671	      0.00000000	      4.95868502	     -7.36297331	     10.91864408	    -65.77887507	     14.37284832	     -2.91751463	      0.00000000	    -26.60712515	     10.90646086	    -11.68555807
      4.71500000	     13.04573780	     -5.68546979	     14.46289418	      0.53572284	      0.93636202	     -0.27392766	     -9.57636894	     12.89928262	     -0.40161203	     -8.49394826	     20.81210532	     -5.04656164	      0.00000000	      5.60041749	     -6.80782550	     10.60235997	    -65.16737237	     14.90731340	     -3.07060728	      0.00000000	    -26.69123383	     10.42889497	    -11.21746910
      4.72000000	     12.98693960	     -5.44904348	     13.95716592	      0.54201936	      0.93685112	     -0.27340378	    -10.21883357	     12.64081207	     -0.14620035	     -8.13927445	     21.02677488	     -4.67663049	      0.00000000	      6.18959677	     -6.29117451	     10.24546126	    -64.46067597	     15.39539390	     -3.17518170	      0.00000000	    -26.78771452	      9.95003103	    -10.70744435
      4.72500000	     12.90873258	     -5.22203531	     13.47793195	      0.54823058	      0.93723584	     -0.27292586	    -10.81199684	     12.38123464	      0.06013012	     -7.81512935	     21.25244578	     -4.29781562	      0.00000000	      6.80207836	     -5.78849117	      9.90971262	    -63.68738212	     15.88211269	     -3.26051930	      0.00000000	    -26.87017194	      9.49421767	    -10.23921377
      4.73000000	     12.84739344	     -5.00728700	     12.97356670	      0.55447611	      0.93758866	     -0.27243374	    -11.42370963	     12.12648521	      0.28986015	     -7.48354476	     21.47103468	     -3.92662720	      0.00000000	      7.37096329	     -5.32239378	      9.54405818	    -62.82626968	     16.33122348	     -3.30674191	      0.00000000	    -26.95890294	      9.04618639	     -9.73413920
      4.73500000	     12.81080003	     -4.79931502	     12.45878130	      0.56076176	      0.93791800	     -0.27192115	    -12.06545258	     11.87613997	      0.52672442	     -7.13765634	     21.66943885	     -3.58183543	      0.00000000	      7.88959193	     -4.89439580	      9.15354897	    -61.88005152	     16.74155341	     -3.30575795	      0.00000000	    -27.06441473	      8.59860140	     -9.20951260
      4.74000000	     12.76896924	     -4.60450491	     11.95932650	      0.56700741	      0.93816372	     -0.27145643	    -12.68311997	     11.63128642	      0.74578044	     -6.80992079	     21.87297657	     -3.23848431	      0.00000000	      8.40435206	     -4.48598318	      8.78445301	    -60.86503148	     17.14412709	     -3.27881404	      0.00000000	    -27.16364297	      8.17822818	     -8.70805939
      4.74500000	     12.73432250	     -4.42251597	     11.45584547	      0.57323559	      0.93835857	     -0.27100392	    -13.29657062	     11.39178223	      0.97003042	     -6.49243370	     22.06997806	     -2.90420805	      0.00000000	      8.89288618	     -4.10652975	      8.41282706	    -59.77265751	     17.52852777	     -3.22126103	      0.00000000	    -27.26956228	      7.77176609	     -8.19958913
      4.75000000	     12.71550807	     -4.25353334	     10.95750352	      0.57947895	      0.93850649	     -0.27055577	    -13.92153448	     11.16430916	      1.18661171	     -6.17393272	     22.26246986	     -2.60474471	      0.00000000	      9.34459757	     -3.76364871	      8.03753493	    -58.60395279	     17.88905545	     -3.12304069	      0.00000000	    -27.38075542	      7.38377599	     -7.69236424
      4.75500000	     12.70891069	     -4.09633813	     10.45436315	      0.58572061	      0.93860902	     -0.27014025	    -14.55112353	     10.93998333	      1.41523711	     -5.86253657	     22.44765808	     -2.31435171	      0.00000000	      9.75854174	     -3.44357688	      7.67285977	    -57.35959460	     18.22988704	     -2.99258884	      0.00000000	    -27.50483833	      7.01331590	     -7.17907871
      4.76000000	     12.68837536	     -3.95851991	      9.97895326	      0.59194574	      0.93860927	     -0.26974601	    -15.14824970	     10.73502360	      1.61605192	     -5.56914840	     22.66406152	     -2.04212490	      0.00000000	     10.17604826	     -3.15402789	      7.33295121	    -56.05027968	     18.58146742	     -2.82729630	      0.00000000	    -27.60278390	      6.66932683	     -6.71623850
      4.76500000	     12.70296337	     -3.82885968	      9.48129445	      0.59819125	      0.93862057	     -0.26936458	    -15.78474270	     10.52900026	      1.83633112	     -5.26924973	     22.82311228	     -1.79533471	      0.00000000	     10.52223940	     -2.89458210	      6.97854720	    -54.66053632	     18.87610543	     -2.62453741	      0.00000000	    -27.74270871	      6.33873866	     -6.19670090
      4.77000000	     12.70551062	     -3.71735365	      9.02148895	      0.60440681	      0.93853301	     -0.26904848	    -16.38703090	     10.34151627	      2.04764576	     -4.99654572	     23.00831397	     -1.56118412	      0.00000000	     10.86620778	     -2.65137118	      6.68298493	    -53.20653360	     19.19519611	     -2.38888193	      0.00000000	    -27.86497796	      6.04477957	     -5.74018878
      4.77500000	     12.76681994	     -3.61677691	      8.53290272	      0.61065204	      0.93848655	     -0.26868263	    -17.05703309	     10.16099676	      2.27010688	     -4.71224638	     23.14096190	     -1.35882942	      0.00000000	     11.10914399	     -2.45435719	      6.35463918	    -51.66722565	     19.43231079	     -2.14107907	      0.00000000	    -28.04554445	      5.74310108	     -5.20104333
      4.78000000	     12.79930622	     -3.53577983	      8.08110600	      0.61689738	      0.93832303	     -0.26839579	    -17.67895013	      9.99735497	      2.45939280	     -4.45127765	     23.30595517	     -1.15721058	      0.00000000	     11.36421810	     -2.27195707	      6.08174858	    -50.06901885	     19.69327728	     -1.85240267	      0.00000000	    -28.18985892	      5.48584702	     -4.73625909
      4.78500000	     12.82309450	     -3.47474741	      7.64092883	      0.62312946	      0.93808279	     -0.26814811	    -18.27628265	      9.84816029	      2.64972382	     -4.21241665	     23.48622042	     -0.96471772	      0.00000000	     11.60476940	     -2.11586748	      5.83358183	    -48.40698126	     19.95063695	     -1.53340750	      0.00000000	    -28.32388040	      5.26245654	     -4.29867846
      4.79000000	     12.88058954	     -3.42560686	      7.20662902	      0.62937923	      0.93784899	     -0.26790839	    -18.90840761	      9.71062865	      2.83694713	     -3.97298115	     23.61872500	     -0.80131270	      0.00000000	     11.77531221	     -1.98715900	      5.60769634	    -46.67119318	     20.13691420	     -1.19253096	      0.00000000	    -28.49204495	      5.04824842	     -3.82125727
      4.79500000	     12.90735753	     -3.40913400	      6.79142311	      0.63564891	      0.93748681	     -0.26770941	    -19.48996711	      9.60115997	      3.00366053	     -3.76297682	     23.80473306	     -0.62359225	      0.00000000	     11.95496530	     -1.89236424	      5.42113431	    -44.88177059	     20.35702254	     -0.83884374	      0.00000000	    -28.61567671	      4.88270034	     -3.42193399
      4.80000000	     12.97877722	     -3.39524132	      6.36493845	      0.64190552	      0.93716897	     -0.26751742	    -20.11247770	      9.48684997	      3.18177114	     -3.56799158	     23.92427678	     -0.46641398	      0.00000000	     12.04421282	     -1.81471182	      5.25035320	    -43.01048070	     20.48943501	     -0.47491849	      0.00000000	    -28.80166281	      4.71163681	     -2.94659867
      4.80500000	     13.04927917	     -3.40778893	      5.96353154	      0.64818718	      0.93677024	     -0.26734713	    -20.72458148	      9.40109104	      3.34172784	     -3.38776972	     24.07185086	     -0.31052594	      0.00000000	     12.10855151	     -1.77234245	      5.11384170	    -41.08847538	     20.59755732	     -0.11111918	      0.00000000	    -28.97502254	      4.58280110	     -2.51719720
      4.81000000	     13.10901911	     -3.44715590	      5.57292588	      0.65450100	      0.93630037	     -0.26720909	    -21.31629507	      9.33625721	      3.49615193	     -3.22628876	     24.22446688	     -0.14411499	      0.00000000	     12.15284179	     -1.76294769	      5.00674629	    -39.11328545	     20.68005464	      0.25594488	      0.00000000	    -29.13068132	      4.48866698	     -2.10369534
      4.81500000	     13.16437218	     -3.51430372	      5.19781704	      0.66084433	      0.93576882	     -0.26708819	    -21.89433817	      9.29747510	      3.64124589	     -3.08360613	     24.37038279	      0.02231489	      0.00000000	     12.17212796	     -1.78887268	      4.93770715	    -37.09183062	     20.71682034	      0.62093667	      0.00000000	    -29.27685367	      4.42545363	     -1.70058880
      4.82000000	     13.13185964	     -3.61553104	      4.91214600	      0.66721107	      0.93505045	     -0.26701725	    -22.35978636	      9.31859540	      3.70739211	     -2.96842034	     24.52549139	      0.17629609	      0.00000000	     12.28397013	     -1.84038415	      4.97869458	    -35.06404030	     20.70480171	      1.07153057	      0.00000000	    -29.31213678	      4.42042117	     -1.38402960
      4.82500000	     13.18823111	     -3.74572016	      4.51262692	      0.67357785	      0.93442480	     -0.26689487	    -22.91136432	      9.31674825	      3.86578498	     -2.89070531	     24.68358049	      0.40338693	      0.00000000	     12.23642891	     -1.95515701	      4.93252629	    -32.95849307	     20.63401911	      1.38130509	      0.00000000	    -29.46079656	      4.41433234	     -0.90775650
      4.83000000	     13.32522594	     -3.87944841	      4.14703046	      0.67999614	      0.93383557	     -0.26679595	    -23.55912798	      9.32867283	      4.06666291	     -2.80130068	     24.77790495	      0.53074813	      0.00000000	     12.06351691	     -2.08441624	      4.92348909	    -30.80693150	     20.49688944	      1.61472611	      0.00000000	    -29.69743934	      4.43095641	     -0.51947386
      4.83500000	     13.30036985	     -4.08094647	      3.86867101	      0.68644592	      0.93295241	     -0.26677782	    -24.00345898	      9.42738979	      4.13531810	     -2.76444512	     24.95067547	      0.77073669	      0.00000000	     12.08319466	     -2.26556004	      5.04146424	    -28.70292766	     20.33456912	      1.93653892	      0.00000000	    -29.73563928	      4.53687763	     -0.13899438
